<?xml version="1.0" encoding="utf-8"?>
<!-- Generator: Adobe Illustrator 25.1.0, SVG Export Plug-In . SVG Version: 6.00 Build 0)  -->
<svg version="1.1" id="Layer_1" xmlns="http://www.w3.org/2000/svg" xmlns:xlink="http://www.w3.org/1999/xlink" x="0px" y="0px"
	 viewBox="0 0 139 34" style="enable-background:new 0 0 139 34;" xml:space="preserve">
<style type="text/css">
	.st0{fill:#FFFFFF;}
</style>
<desc>Created with Sketch.</desc>
<g id="Symbols">
	<g id="Navigation_x2F_Transparent" transform="translate(-55.000000, -59.000000)">
		<g id="Logos_x2F_O_x26_M-Logo-white" transform="translate(55.000000, 59.000000)">
			<g id="O_x26_M-Logo-white">
				<path id="Shape" class="st0" d="M75.5,1c4.2,0,7.7,3.4,7.7,7.6c0,4.2-3.4,7.7-7.6,7.7c-4.2,0-7.7-3.4-7.7-7.6c0-2,0.8-4,2.2-5.4
					C71.6,1.8,73.5,1,75.5,1 M75.5,14.2c3.1,0,5.5-2.5,5.5-5.5c0-3-2.5-5.6-5.5-5.6c-3,0-5.5,2.5-5.5,5.6
					C70,11.7,72.5,14.2,75.5,14.2"/>
				<path id="Path" class="st0" d="M84.8,8.1c-0.1-0.3,0-0.5,0.3-0.5h1.2c0.2,0,0.3,0.1,0.4,0.3l1.4,4.7h0l2.3-4.9
					c0.1-0.1,0.2-0.2,0.4-0.2h0.1c0.2,0,0.3,0.1,0.4,0.2l2.3,5h0L95,7.9c0.1-0.3,0.4-0.3,0.7-0.3h0.8c0.3,0,0.5,0.2,0.3,0.5l-2.5,8
					c-0.1,0.1-0.2,0.2-0.4,0.2h-0.1c-0.2,0-0.3-0.1-0.4-0.2l-2.6-5.7h0l-2.6,5.7c-0.1,0.1-0.2,0.2-0.3,0.2h-0.1
					c-0.2,0-0.3-0.1-0.4-0.2L84.8,8.1z"/>
				<path id="Shape_1_" class="st0" d="M102.7,7.4c2.2,0,4,1.7,4,3.9c0,0.2,0,0.4,0,0.6c0,0.2-0.2,0.4-0.4,0.4h-5.8
					c0.1,1.3,1.2,2.3,2.5,2.3c0.8,0,1.5-0.3,1.9-0.6c0.3-0.1,0.4-0.2,0.6,0l0.6,0.8c0.2,0.2,0.2,0.3,0,0.6c-0.6,0.5-1.7,1.1-3.2,1.1
					c-2.6,0-4.3-2-4.3-4.5C98.4,9.5,100.1,7.4,102.7,7.4 M104.7,10.9c-0.1-1-0.9-1.9-2-1.9c-1.1,0-2.1,0.8-2.2,1.9H104.7z"/>
				<path id="Path_1_" class="st0" d="M108.8,8c0-0.2,0.2-0.4,0.4-0.4h0.6c0.2,0,0.3,0.1,0.3,0.3l0.3,0.7c0.2-0.2,1.3-1.2,3-1.2
					c2.6,0,3.6,1.8,3.6,4.1v4.3c0,0.2-0.2,0.4-0.4,0.4h-1.2c-0.2,0-0.4-0.2-0.4-0.4v-4.4c0-1.4-0.7-2.1-1.8-2.1
					c-1.4,0-2.3,1-2.4,1.3v5.2c0,0.3-0.1,0.4-0.5,0.4h-1.1c-0.2,0-0.4-0.2-0.4-0.4L108.8,8z"/>
				<path id="Path_2_" class="st0" d="M119.5,15l0.5-0.8c0.1-0.1,0.1-0.2,0.2-0.2c0.1,0,0.2,0,0.3,0.1c0,0,0.9,0.6,2,0.6
					c0.6,0,1.1-0.3,1.1-0.7c0-0.6-0.5-0.9-1.7-1.4c-1.3-0.6-2.5-1.4-2.5-2.8c0-1.1,0.9-2.3,3-2.3c1.2,0,2.1,0.4,2.5,0.7
					c0.2,0.1,0.3,0.4,0.2,0.6l-0.4,0.7c-0.1,0.2-0.4,0.3-0.6,0.2c0,0-0.9-0.4-1.8-0.4c-0.7,0-1,0.3-1,0.6c0,0.6,0.5,0.8,1.4,1.1
					c1.6,0.7,2.9,1.3,2.9,2.9c0,1.3-1.3,2.5-3.2,2.5c-1.4,0-2.4-0.5-2.9-0.9C119.5,15.4,119.4,15.2,119.5,15"/>
				<path id="Shape_2_" class="st0" d="M71.3,25.2L71.3,25.2l-0.4-0.5c-0.9-0.9-1.5-1.8-1.5-3.1c0-1.6,1.3-3.4,4-3.4
					c2.4,0,4,1.6,4,3.5c0,2.2-2.2,3.5-2.6,3.9l2.4,2.5c0.4-0.7,0.6-1.5,0.8-2.4c0.1-0.4,0.2-0.7,0.7-0.5l1.2,0.3
					c0.6,0.1,0.4,0.6,0.4,0.8c-0.3,1.2-0.7,2.3-1.3,3.4l1.9,1.8c0.3,0.3,0.5,0.5,0,1L80,33.3c-0.3,0.2-0.6,0.3-0.9-0.1l-1.5-1.6
					c-0.4,0.4-1.9,1.8-4.6,1.8c-2.7,0-4.5-1.8-4.5-4C68.4,26.7,71,25.5,71.3,25.2 M73.2,31.2c1.1,0,2.1-0.4,2.8-1.3l-3.2-3.4
					c-0.3,0.2-1.8,0.9-1.8,2.6C70.9,30.4,71.9,31.2,73.2,31.2 M75.2,21.8c0-0.8-0.7-1.6-1.8-1.6c-1,0-1.6,0.7-1.6,1.4
					c0,0.7,0.5,1.2,1.1,1.9l0.5,0.5C73.7,23.8,75.2,23.1,75.2,21.8"/>
				<path id="Path_3_" class="st0" d="M85.6,18.5c0-0.2,0.2-0.3,0.4-0.3h0.3c0.2,0,0.3,0.1,0.4,0.2l4.5,10.9h0.1l4.5-10.9
					c0.1-0.1,0.2-0.2,0.4-0.2h0.3c0.2,0,0.3,0.1,0.4,0.3l2.6,14.3c0.1,0.3-0.1,0.5-0.4,0.5h-1.4c-0.2,0-0.3-0.1-0.4-0.3l-1.6-9.5
					h-0.1l-3.9,9.8c-0.1,0.2-0.2,0.2-0.4,0.2h-0.4c-0.2,0-0.3-0.1-0.4-0.2l-3.9-9.8h-0.1L85.1,33c0,0.2-0.2,0.3-0.4,0.3h-1.4
					c-0.3,0-0.5-0.2-0.4-0.5L85.6,18.5z"/>
				<path id="Shape_3_" class="st0" d="M101.6,20.1c0-0.3,0.1-0.6,0.4-0.9c0.2-0.2,0.6-0.4,0.9-0.4c0.7,0,1.3,0.6,1.3,1.2
					s-0.6,1.2-1.3,1.2c-0.3,0-0.7-0.1-0.9-0.4C101.7,20.7,101.6,20.4,101.6,20.1 M101.8,25.2c0-0.2,0.2-0.4,0.4-0.4h1.2
					c0.2,0,0.4,0.2,0.4,0.4v7.7c0,0.2-0.2,0.4-0.4,0.4h-1.2c-0.2,0-0.4-0.2-0.4-0.4L101.8,25.2z"/>
				<path id="Path_4_" class="st0" d="M106.8,25.2c0-0.2,0.2-0.4,0.4-0.4h0.6c0.2,0,0.3,0.1,0.3,0.3l0.3,0.7c0.2-0.2,1.3-1.2,3-1.2
					c2.6,0,3.6,1.8,3.6,4.1v4.3c0,0.2-0.2,0.4-0.4,0.4h-1.2c-0.2,0-0.4-0.2-0.4-0.4v-4.4c0-1.4-0.7-2.1-1.8-2.1
					c-1.4,0-2.3,1-2.4,1.3v5.2c0,0.3-0.1,0.4-0.5,0.4h-1.1c-0.2,0-0.4-0.2-0.4-0.4L106.8,25.2z"/>
				<path id="Shape_4_" class="st0" d="M121.6,24.6c2.4,0,4.3,2,4.3,4.4c0,2.4-1.9,4.5-4.3,4.5c-2.4,0-4.3-2-4.3-4.5
					C117.3,26.6,119.2,24.6,121.6,24.6 M121.6,31.7c1.3,0,2.4-1.2,2.4-2.7c0-1.4-1.1-2.6-2.4-2.6c-1.3,0-2.4,1.2-2.4,2.6
					C119.2,30.5,120.2,31.7,121.6,31.7"/>
				<path id="Path_5_" class="st0" d="M128.2,25.2c0-0.2,0.2-0.4,0.4-0.4h0.6c0.2,0,0.3,0.1,0.4,0.3l0.2,0.7
					c0.6-0.8,1.5-1.3,2.5-1.2c0.8,0,1.8,0.2,1.6,0.8l-0.5,1c0,0.1-0.1,0.2-0.2,0.2c-0.1,0-0.2,0-0.3,0c-0.2-0.1-0.5-0.1-0.7-0.2
					c-0.8,0-1.5,0.4-1.9,1v5.4c0,0.4-0.2,0.4-0.6,0.4h-1c-0.2,0-0.4-0.2-0.4-0.4L128.2,25.2z"/>
				<path id="Path_6_" class="st0" d="M15.1,13.6c0.8,0,1.5-0.1,2.3-0.3c0.8-0.2,1.6-0.3,2.4-0.3c0.8,0,1.6,0.1,2.4,0.3
					c0.7,0.2,1.5,0.3,2.3,0.3h38.7V0.7h-8.6l-6.4,12l-6.3-12h-9v9.6c-3-6.8-10-11-17.4-10.2S1.8,6.3,0.3,13.6H15.1z"/>
				<path id="Path_7_" class="st0" d="M24.4,14.3c-0.8,0-1.5,0.1-2.3,0.3c-0.8,0.2-1.6,0.3-2.4,0.3c-0.8,0-1.6-0.1-2.4-0.3
					c-0.7-0.2-1.5-0.3-2.3-0.3H0.2C0.1,15.1,0,16,0,16.8h11.1c0.8,0,1.5-0.1,2.3-0.3c0.8-0.2,1.6-0.3,2.4-0.3c0.8,0,1.6,0.1,2.4,0.3
					c0.7,0.2,1.5,0.3,2.3,0.3h42.7v-2.5H24.4z"/>
				<path id="Path_8_" class="st0" d="M18.2,17.8c-0.8,0.2-1.6,0.3-2.4,0.3c-0.8,0-1.6-0.1-2.4-0.3c-0.7-0.2-1.5-0.3-2.3-0.3H0
					c0,0.8,0.1,1.7,0.2,2.5h7.2c0.8,0,1.5-0.1,2.3-0.3c0.8-0.2,1.6-0.3,2.4-0.3c0.8,0,1.6,0.1,2.4,0.3c0.7,0.2,1.5,0.3,2.3,0.3h46.4
					v-2.5H20.5C19.7,17.5,18.9,17.6,18.2,17.8"/>
				<path id="Path_9_" class="st0" d="M16.8,20.7c-0.8,0-1.5,0.1-2.3,0.3c-0.8,0.2-1.6,0.3-2.4,0.3c-0.8,0-1.6-0.1-2.4-0.3
					c-0.7-0.2-1.5-0.3-2.3-0.3h-7C1.9,27.9,8,33.2,15.4,33.9c7.4,0.7,14.4-3.4,17.3-10.2v9.7h7.7V21.5l7.4,11.9h0.7l7.3-11.9v11.9
					h7.4V20.7H16.8z"/>
				<path id="Path_10_" class="st0" d="M135.9,23.7h-0.4c0,0-0.1,0-0.1-0.1v-0.2c0,0,0-0.1,0.1-0.1h1.2c0,0,0.1,0,0.1,0.1v0.2
					c0,0,0,0.1-0.1,0.1h-0.4v1.5c0,0,0,0-0.1,0H136c0,0-0.1,0-0.1,0L135.9,23.7z"/>
				<path id="Path_11_" class="st0" d="M137.1,23.4C137.1,23.4,137.2,23.4,137.1,23.4L137.1,23.4c0.1,0,0.1,0,0.1,0l0.6,1.3h0
					l0.6-1.3c0,0,0,0,0,0h0c0,0,0,0,0.1,0l0.3,1.9c0,0,0,0,0,0c0,0,0,0,0,0h-0.3c0,0,0,0-0.1,0l-0.2-1.1h0l-0.5,1.1c0,0,0,0,0,0
					h-0.1c0,0,0,0,0,0l-0.5-1.1h0l-0.2,1.1c0,0,0,0-0.1,0h-0.3c0,0,0,0,0,0c0,0,0,0,0,0L137.1,23.4z"/>
			</g>
		</g>
	</g>
</g>
</svg>
